<?xml version="1.0" standalone="no"?>
<!DOCTYPE svg PUBLIC "-//W3C//DTD SVG 1.0//EN" "http://www.w3.org/TR/2001/REC-SVG-20010904/DTD/svg10.dtd">
<svg xmlns="http://www.w3.org/2000/svg" xmlns:xlink="http://www.w3.org/1999/xlink" id="body_1" width="256" height="192">

<g transform="matrix(0.3755575 0 0 0.3755575 74.67084 -0)">
    <path d="M125.1 494.24L158.9 494.24C 188.62 494.24 215.64 482.06998 235.23999 462.47998C 254.82999 442.88998 267 415.86 267 386.13998L267 386.13998L267 270.52L266.27 270.55L17 270.55L17 386.13998C 17 415.86 29.17 442.88998 48.760002 462.47998C 68.350006 482.06998 95.380005 494.24 125.1 494.24zM134.45 292.65C 134.45 288.47998 137.83 285.1 142.01 285.1C 146.17975 285.1 149.56 288.48022 149.56 292.65L149.56 292.65L149.56 317.26L156.3 310.21002C 159.16 307.2 163.94 307.08002 166.95 309.95C 169.95999 312.81 170.08 317.59003 167.20999 320.6L167.20999 320.6L147.84 340.89C 146.40875 342.6376 144.26884 343.65067 142.01 343.65002C 139.74881 343.6484 137.60675 342.63605 136.17 340.89L136.17 340.89L116.8 320.6C 113.93 317.59 114.05 312.81 117.060005 309.95C 120.07001 307.08002 124.850006 307.2 127.71001 310.21002L127.71001 310.21002L134.45001 317.27002L134.45001 292.65002zM149.56 51C 149.56001 53.002384 148.76457 54.92276 147.34866 56.338657C 145.93277 57.75456 144.01239 58.550003 142.01 58.55C 137.83 58.55 134.45 55.17 134.45 51L134.45 51L134.45 26.38L127.71 33.44C 124.85 36.449997 120.07 36.57 117.06 33.699997C 114.049995 30.839996 113.93 26.059998 116.799995 23.049997L116.799995 23.049997L136.17 2.7599964C 137.6038 1.0101838 139.74777 -0.0030574799 142.01 0C 144.36 0 146.45999 1.07 147.84 2.76L147.84 2.76L167.20999 23.050001C 170.07999 26.060001 169.95999 30.84 166.95 33.7C 163.94 36.57 159.16 36.45 156.3 33.440002L156.3 33.440002L149.56 26.380003L149.56 51zM150.5 125.63C 155.26 127.06 159.52 129.67 162.95 133.09C 168.31999 138.45999 171.67 145.89 171.67 154.03L171.67 154.03L171.67 191.17C 171.67 199.3 168.31 206.73 162.94 212.1C 159.47044 215.57477 155.19768 218.14047 150.5 219.57L150.5 219.57L150.5 253.55L266.27 253.55L267 253.58L267 199.35C 267 169.63 254.83 142.6 235.24 123.01001C 215.64 103.42001 188.62001 91.25001 158.90001 91.25001L158.90001 91.25001L150.50002 91.25001L150.50002 125.630005zM133.5 219.56C 128.77 218.13 124.520004 215.53 121.09 212.11C 115.689995 206.74 112.34 199.33 112.34 191.17L112.34 191.17L112.34 154.03C 112.34 145.87 115.67999 138.45 121.049995 133.08C 124.5233 129.60724 128.79962 127.04489 133.5 125.62L133.5 125.62L133.5 91.25L125.1 91.25C 95.38 91.25 68.35 103.42 48.760002 123.01C 29.17 142.6 17 169.63 17 199.35L17 199.35L17 253.55L133.5 253.55L133.5 219.56zM158.9 511.24L125.09999 511.24C 90.68999 511.24 59.40999 497.16998 36.73999 474.5C 14.07 451.84 0 420.55 0 386.14L0 386.14L0 199.35C 0 164.94 14.07 133.66 36.74 110.990005C 59.410004 88.32001 90.69 74.25 125.100006 74.25L125.100006 74.25L158.90001 74.25C 193.32 74.25 224.6 88.33 247.26001 110.990005C 269.93002 133.66 284 164.94 284 199.35L284 199.35L284 386.14C 284 420.55002 269.93 451.84003 247.26 474.5C 224.59999 497.16 193.31999 511.24 158.9 511.24z" stroke="none" fill="#000000" fill-rule="nonzero" />
    <path d="M142 133.52L142.01 133.52C 153.29 133.52 162.51999 142.81 162.51999 154.04001L162.51999 154.04001L162.51999 191.17001C 162.51999 202.40001 153.23999 211.69002 142.01 211.69002L142.01 211.69002L142 211.69002C 130.77 211.69002 121.479996 202.45001 121.479996 191.17001L121.479996 191.17001L121.479996 154.04001C 121.479996 142.75002 130.72 133.52 142 133.52z" stroke="none" fill="#FFF185" fill-rule="nonzero" />
</g>
</svg>