{
    "asset" : {
        "generator" : "Khronos glTF Blender I/O v3.2.43",
        "version" : "2.0"
    },
    "scene" : 0,
    "scenes" : [
        {
            "name" : "Scene",
            "nodes" : [
                5
            ]
        }
    ],
    "nodes" : [
        {
            "mesh" : 0,
            "name" : "Object_5",
            "scale" : [
                9.999999046325684,
                10.000000953674316,
                10.000000953674316
            ]
        },
        {
            "children" : [
                0
            ],
            "name" : "rhino.1_1"
        },
        {
            "children" : [
                1
            ],
            "name" : "RootNode.0_0",
            "scale" : [
                0.009999999776482582,
                0.009999999776482582,
                0.009999999776482582
            ]
        },
        {
            "children" : [
                2
            ],
            "name" : "GLTF_SceneRootNode",
            "rotation" : [
                0.7071068286895752,
                0,
                0,
                0.7071067094802856
            ]
        },
        {
            "children" : [
                3
            ],
            "name" : "root"
        },
        {
            "children" : [
                4
            ],
            "name" : "Sketchfab_model",
            "rotation" : [
                -0.7071068286895752,
                0,
                0,
                0.7071067094802856
            ]
        }
    ],
    "materials" : [
        {
            "doubleSided" : true,
            "name" : "material_0",
            "occlusionTexture" : {
                "index" : 0
            },
            "pbrMetallicRoughness" : {}
        }
    ],
    "meshes" : [
        {
            "name" : "Object_0",
            "primitives" : [
                {
                    "attributes" : {
                        "POSITION" : 0,
                        "NORMAL" : 1,
                        "TEXCOORD_0" : 2,
                        "TEXCOORD_1" : 3,
                        "TEXCOORD_2" : 4,
                        "TEXCOORD_3" : 5,
                        "TEXCOORD_4" : 6
                    },
                    "indices" : 7,
                    "material" : 0
                }
            ]
        }
    ],
    "textures" : [
        {
            "sampler" : 0,
            "source" : 0
        }
    ],
    "images" : [
        {
            "bufferView" : 8,
            "mimeType" : "image/png",
            "name" : "material_0_occlusion"
        }
    ],
    "accessors" : [
        {
            "bufferView" : 0,
            "componentType" : 5126,
            "count" : 10968,
            "max" : [
                4.4452362060546875,
                14.599884033203125,
                16.089797973632812
            ],
            "min" : [
                -4.443065643310547,
                0.006079196929931641,
                -12.354171752929688
            ],
            "type" : "VEC3"
        },
        {
            "bufferView" : 1,
            "componentType" : 5126,
            "count" : 10968,
            "type" : "VEC3"
        },
        {
            "bufferView" : 2,
            "componentType" : 5126,
            "count" : 10968,
            "type" : "VEC2"
        },
        {
            "bufferView" : 3,
            "componentType" : 5126,
            "count" : 10968,
            "type" : "VEC2"
        },
        {
            "bufferView" : 4,
            "componentType" : 5126,
            "count" : 10968,
            "type" : "VEC2"
        },
        {
            "bufferView" : 5,
            "componentType" : 5126,
            "count" : 10968,
            "type" : "VEC2"
        },
        {
            "bufferView" : 6,
            "componentType" : 5126,
            "count" : 10968,
            "type" : "VEC2"
        },
        {
            "bufferView" : 7,
            "componentType" : 5123,
            "count" : 60948,
            "type" : "SCALAR"
        }
    ],
    "bufferViews" : [
        {
            "buffer" : 0,
            "byteLength" : 131616,
            "byteOffset" : 0
        },
        {
            "buffer" : 0,
            "byteLength" : 131616,
            "byteOffset" : 131616
        },
        {
            "buffer" : 0,
            "byteLength" : 87744,
            "byteOffset" : 263232
        },
        {
            "buffer" : 0,
            "byteLength" : 87744,
            "byteOffset" : 350976
        },
        {
            "buffer" : 0,
            "byteLength" : 87744,
            "byteOffset" : 438720
        },
        {
            "buffer" : 0,
            "byteLength" : 87744,
            "byteOffset" : 526464
        },
        {
            "buffer" : 0,
            "byteLength" : 87744,
            "byteOffset" : 614208
        },
        {
            "buffer" : 0,
            "byteLength" : 121896,
            "byteOffset" : 701952
        },
        {
            "buffer" : 0,
            "byteLength" : 678170,
            "byteOffset" : 823848
        }
    ],
    "samplers" : [
        {
            "magFilter" : 9729,
            "minFilter" : 9987
        }
    ],
    "buffers" : [
        {
            "byteLength" : 1502020,
            "uri" : "data:application/octet-stream;base64,"
        }
    ]
}
